<svg xmlns="http://www.w3.org/2000/svg" width="32" height="32" viewBox="0 0 32 32">
  <g id="Group_43" data-name="Group 43" transform="translate(-106 -437)">
    <g id="Group_40" data-name="Group 40">
      <rect id="Rectangle_648" data-name="Rectangle 648" width="32" height="32" rx="6" transform="translate(106 437)" fill="#edf1f6"/>
    </g>
    <g id="profit" transform="translate(132 444)">
      <path id="Path_29" data-name="Path 29" d="M1,5.527a4.528,4.528,0,1,1,4.528,4.528A4.533,4.533,0,0,1,1,5.527Z" transform="translate(-16)" fill="#fff"/>
    </g>
    <ellipse id="Ellipse_13" data-name="Ellipse 13" cx="2.5" cy="1.5" rx="2.5" ry="1.5" transform="matrix(0.875, -0.485, 0.485, 0.875, 120.524, 457.158)" fill="#2680eb"/>
    <ellipse id="Ellipse_14" data-name="Ellipse 14" cx="2.5" cy="1.5" rx="2.5" ry="1.5" transform="translate(117.978 454.734) rotate(29)" fill="#2680eb"/>
    <g id="profit-2" data-name="profit" transform="translate(116 444)">
      <path id="Path_28" data-name="Path 28" d="M123,76.827v-.252a1.5,1.5,0,0,0-.5-2.911.5.5,0,1,1,0-1h1a.5.5,0,1,0,0-1H123V71.5a.5.5,0,0,0-1,0v.252a1.5,1.5,0,0,0,.5,2.911.5.5,0,0,1,0,1h-1a.5.5,0,1,0,0,1h.5v.166a.5.5,0,0,0,1,0Zm0,0" transform="translate(-116.971 -68.636)"/>
      <path id="Path_29-2" data-name="Path 29" d="M10.419,11.7a3.4,3.4,0,0,0-3.5.163,4.418,4.418,0,0,0-.895.679v-1.5a5.527,5.527,0,1,0-1,0v1.5a4.418,4.418,0,0,0-.895-.679,3.4,3.4,0,0,0-3.5-.163.5.5,0,0,0-.223.387A3.4,3.4,0,0,0,2.3,15.03a4.092,4.092,0,0,0,2.02.573,3.015,3.015,0,0,0,.706-.081v1.027a.5.5,0,1,0,1,0V15.522a3.016,3.016,0,0,0,.706.081,4.091,4.091,0,0,0,2.02-.573,3.4,3.4,0,0,0,1.89-2.948.5.5,0,0,0-.223-.387ZM2.8,14.165a2.7,2.7,0,0,1-1.38-1.758,2.7,2.7,0,0,1,2.212.316,2.7,2.7,0,0,1,1.38,1.758A2.7,2.7,0,0,1,2.8,14.165ZM1,5.527a4.528,4.528,0,1,1,4.528,4.528A4.533,4.533,0,0,1,1,5.527Zm7.254,8.637a2.7,2.7,0,0,1-2.212.316,2.7,2.7,0,0,1,1.38-1.758,2.7,2.7,0,0,1,2.212-.316A2.7,2.7,0,0,1,8.253,14.165Zm0,0"/>
    </g>
  </g>
</svg>
