<svg xmlns="http://www.w3.org/2000/svg" width="32" height="32" viewBox="0 0 32 32">
  <g id="Group_45" data-name="Group 45" transform="translate(-106 -162)">
    <g id="Group_38" data-name="Group 38">
      <rect id="Rectangle_645" data-name="Rectangle 645" width="32" height="32" rx="6" transform="translate(106 162)" fill="#edf1f6"/>
    </g>
    <g id="sort_2_" data-name="sort (2)" transform="translate(15.728 169)">
      <g id="Group_15" data-name="Group 15" transform="translate(101.272)">
        <g id="Group_14" data-name="Group 14">
          <path id="Path_30" data-name="Path 30" d="M263.9,8.864l-2.627,2.653.8.792L263.365,11v11.05h1.125V11.059l1.236,1.25.8-.792Z" transform="translate(-255.647 -8.552)"/>
          <rect id="Rectangle_650" data-name="Rectangle 650" width="1.125" height="1.125" transform="translate(7.718 14.625)" fill="#2680eb"/>
          <rect id="Rectangle_651" data-name="Rectangle 651" width="1.125" height="1.125" transform="translate(7.718 16.875)" fill="#2680eb"/>
          <path id="Path_31" data-name="Path 31" d="M104.49,138.979V128h-1.125v11.036l-1.293-1.307-.8.792,2.627,2.653,2.627-2.653-.8-.792Z" transform="translate(-101.272 -123.5)"/>
          <rect id="Rectangle_652" data-name="Rectangle 652" width="1.125" height="1.125" transform="translate(2.093 2.25)" fill="#2680eb"/>
          <rect id="Rectangle_653" data-name="Rectangle 653" width="1.125" height="1.125" transform="translate(2.093)" fill="#2680eb"/>
        </g>
      </g>
    </g>
  </g>
</svg>
