<svg xmlns="http://www.w3.org/2000/svg" width="19.5" height="19.501" viewBox="0 0 19.5 19.501">
  <g id="Group_11" data-name="Group 11" transform="translate(-27 -129.498)">
    <path id="filter" d="M19.238,0H1.262A.762.762,0,0,0,.5.762,7.44,7.44,0,0,0,2.995,6.318L6.331,9.283a2.714,2.714,0,0,1,.91,2.027v7.428a.762.762,0,0,0,1.184.634l4.494-3a.762.762,0,0,0,.339-.634V11.31a2.714,2.714,0,0,1,.91-2.027l3.336-2.965A7.44,7.44,0,0,0,20,.762.762.762,0,0,0,19.238,0ZM16.493,5.179,13.157,8.144a4.239,4.239,0,0,0-1.422,3.166v4.025l-2.971,1.98v-6A4.239,4.239,0,0,0,7.343,8.144L4.007,5.179A5.917,5.917,0,0,1,2.073,1.523H18.427a5.916,5.916,0,0,1-1.934,3.656Zm0,0" transform="translate(26.5 129.498)" fill="#fff"/>
    <path id="filter-2" data-name="filter" d="M19.238,0H1.262A.762.762,0,0,0,.5.762,7.44,7.44,0,0,0,2.995,6.318L6.331,9.283a2.714,2.714,0,0,1,.91,2.027v7.428a.762.762,0,0,0,1.184.634l4.494-3a.762.762,0,0,0,.339-.634V11.31a2.714,2.714,0,0,1,.91-2.027l3.336-2.965A7.44,7.44,0,0,0,20,.762.762.762,0,0,0,19.238,0Z" transform="translate(26.5 129.498)" fill="#fff"/>
  </g>
</svg>
