<svg xmlns="http://www.w3.org/2000/svg" width="10.859" height="15.445" viewBox="0 0 10.859 15.445">
  <g id="placeholder_2_" data-name="placeholder (2)" transform="translate(-76)">
    <g id="Group_17" data-name="Group 17" transform="translate(76)">
      <g id="Group_16" data-name="Group 16" transform="translate(0)">
        <path id="Path_32" data-name="Path 32" d="M81.43,0a5.431,5.431,0,0,0-4.619,8.285l4.31,6.946a.452.452,0,0,0,.384.214h0a.452.452,0,0,0,.385-.22l4.2-7.013A5.431,5.431,0,0,0,81.43,0Zm3.887,7.747L81.5,14.123,77.58,7.808a4.528,4.528,0,1,1,7.737-.061Z" transform="translate(-76)"/>
      </g>
    </g>
    <g id="Group_19" data-name="Group 19" transform="translate(78.715 2.715)">
      <g id="Group_18" data-name="Group 18">
        <path id="Path_33" data-name="Path 33" d="M168.715,90a2.715,2.715,0,1,0,2.715,2.715A2.718,2.718,0,0,0,168.715,90Zm0,4.531a1.816,1.816,0,1,1,1.813-1.816A1.817,1.817,0,0,1,168.715,94.531Z" transform="translate(-166 -90)"/>
      </g>
    </g>
  </g>
</svg>
