<svg xmlns="http://www.w3.org/2000/svg" width="15.333" height="13.477" viewBox="0 0 15.333 13.477">
  <path id="portfolio_2_" data-name="portfolio (2)" d="M14.887,1.8H10.811V1.348A1.349,1.349,0,0,0,9.464,0H5.87A1.349,1.349,0,0,0,4.522,1.348V1.8H.449A.45.45,0,0,0,0,2.246v9.883a1.349,1.349,0,0,0,1.348,1.348H13.986a1.349,1.349,0,0,0,1.348-1.348V2.254a.436.436,0,0,0-.446-.457ZM5.421,1.348A.45.45,0,0,1,5.87.9H9.464a.45.45,0,0,1,.449.449V1.8H5.421ZM14.261,2.7l-1.4,4.185a.448.448,0,0,1-.426.307H9.913V6.738a.449.449,0,0,0-.449-.449H5.87a.449.449,0,0,0-.449.449v.449H2.894a.448.448,0,0,1-.426-.307L1.073,2.7ZM9.015,7.187v.9h-2.7v-.9Zm5.421,4.941a.45.45,0,0,1-.449.449H1.348A.45.45,0,0,1,.9,12.129V5.014l.717,2.15a1.346,1.346,0,0,0,1.278.921H5.421v.449a.449.449,0,0,0,.449.449H9.464a.449.449,0,0,0,.449-.449V8.086H12.44a1.346,1.346,0,0,0,1.278-.921l.717-2.15Zm0,0" transform="translate(0)"/>
</svg>
